<svg width="990" height="300" viewBox="0 0 990 300" fill="none" xmlns="http://www.w3.org/2000/svg">
<rect width="990" height="300" fill="#E5E5E5"/>
<path d="M424.44 147H414.328V109.496C414.328 104.291 412.621 101.688 409.208 101.688H408.952C405.283 101.859 402.595 103.992 400.888 108.088V147H390.776V112.312L397.816 100.536C400.717 96.0133 404.728 93.752 409.848 93.752C419.405 93.752 424.269 99.2133 424.44 110.136V147ZM400.888 147H390.776V113.08C390.776 106.168 387.747 102.712 381.688 102.712C376.312 102.712 372.813 106.083 371.192 112.824H364.152C362.275 105.4 358.819 101.688 353.784 101.688C347.981 101.688 345.08 106.211 345.08 115.256C345.08 126.093 348.92 134.584 356.6 140.728L355.96 147H330.104C322.339 147 317.219 144.141 314.744 138.424C314.061 136.547 313.72 134.669 313.72 132.792C313.72 129.805 314.488 126.776 316.024 123.704L321.656 111.928C322.424 110.136 322.808 108.515 322.808 107.064C322.808 105.613 322.339 104.376 321.4 103.352C320.461 102.243 319.267 101.688 317.816 101.688L316.408 101.816C312.312 102.755 310.264 107.107 310.264 114.872V117.432L304.76 117.816C303.48 114.232 302.84 111.032 302.84 108.216C302.84 103.949 304.12 100.408 306.68 97.592C309.325 94.776 313.123 93.368 318.072 93.368C322.595 93.368 326.093 94.6907 328.568 97.336C331.128 99.9813 332.408 103.309 332.408 107.32C332.408 110.307 331.64 113.592 330.104 117.176C326.179 124.344 324.216 129.592 324.216 132.92C324.216 136.76 326.221 138.68 330.232 138.68H344.312C338.253 133.304 335.224 125.624 335.224 115.64C335.224 108.813 336.803 103.395 339.96 99.384C343.203 95.3733 347.811 93.368 353.784 93.368C361.208 93.5387 365.944 96.0987 367.992 101.048C371.235 96.44 376.056 94.136 382.456 94.136C394.744 94.136 400.888 100.621 400.888 113.592V147ZM454.171 140.472L454.683 140.344C456.987 140.088 458.139 137.869 458.139 133.688C456.347 133.688 454.854 134.157 453.659 135.096C452.55 135.949 451.995 136.973 451.995 138.168C451.995 139.704 452.72 140.472 454.171 140.472ZM492.443 124.984V111.288C492.443 99.512 497.904 93.624 508.827 93.624C519.664 93.624 525.083 99.512 525.083 111.288V147H514.843V110.136C514.843 105.357 512.838 102.968 508.827 102.968C504.731 102.968 502.683 105.357 502.683 110.136V125.24C502.342 139.576 495.984 146.872 483.611 147.128C478.064 147.043 472.432 144.227 466.715 138.68C464.923 144.056 461.254 147 455.707 147.512H454.043C451.227 147.512 448.923 146.744 447.131 145.208C445.424 143.587 444.528 141.325 444.443 138.424C444.443 135.096 445.638 132.28 448.027 129.976C450.416 127.672 453.787 126.477 458.139 126.392V109.368C457.883 104.589 455.707 102.2 451.611 102.2C446.491 102.2 443.931 105.741 443.931 112.824C444.272 117.773 445.808 121.528 448.539 124.088L445.723 127.544C441.968 125.752 439.195 123.235 437.403 119.992C435.611 116.749 434.715 113.379 434.715 109.88C434.715 106.723 435.526 103.693 437.147 100.792C439.792 95.8427 444.699 93.368 451.867 93.368C462.704 93.368 468.208 98.7013 468.379 109.368V129.976C474.694 135.693 479.856 138.552 483.867 138.552H484.507C489.798 138.211 492.443 133.688 492.443 124.984ZM525.1 215.736H514.86V183.096C514.86 174.733 510.337 170.552 501.292 170.552C495.063 170.552 489.772 173.88 485.42 180.536C499.927 182.84 507.18 189.496 507.18 200.504C507.18 210.317 501.548 215.395 490.284 215.736H482.22L482.732 207.416H490.54C495.063 207.416 497.324 205.24 497.324 200.888C497.324 192.867 490.668 188.173 477.356 186.808L474.54 181.944C479.489 169.485 488.535 162.957 501.676 162.36C517.121 162.36 524.929 168.973 525.1 182.2V215.736ZM484.524 215.736H475.18C469.292 215.736 464.897 214.285 461.996 211.384C459.095 208.483 457.644 204.6 457.644 199.736C457.644 196.237 458.753 190.221 460.972 181.688C461.484 179.725 461.74 178.061 461.74 176.696C461.74 174.904 461.356 173.411 460.588 172.216C459.82 171.021 458.668 170.424 457.132 170.424L455.724 170.552C451.628 171.491 449.58 175.843 449.58 183.608V186.168L444.076 186.552C443.137 182.968 442.668 179.768 442.668 176.952C442.668 172.685 443.905 169.144 446.38 166.328C448.769 163.512 452.439 162.104 457.388 162.104C462.252 162.104 465.879 163.384 468.268 165.944C470.572 168.504 471.724 171.917 471.724 176.184C471.724 178.573 471.34 181.176 470.572 183.992C468.78 190.477 467.841 195.213 467.756 198.2V198.84C467.756 201.485 468.524 203.576 470.06 205.112C471.511 206.648 473.644 207.416 476.46 207.416H484.396L484.524 215.736ZM456.729 84L433.049 70.304L437.529 63.264L454.169 72.864C459.972 51.2747 473.454 40.48 494.617 40.48C506.905 40.48 516.462 45.6 523.289 55.84L522.521 60.704L467.225 83.872L464.537 78.24L509.849 56.224C506.18 51.7013 500.889 49.3547 493.977 49.184C482.969 49.696 474.692 53.3653 469.145 60.192C463.598 66.9333 459.46 74.8693 456.729 84ZM579.244 223.8C570.113 214.072 565.548 200.376 565.548 182.712C565.548 173.155 566.913 162.403 569.644 150.456L574.764 127.288C576.129 121.059 576.812 116.792 576.812 114.488C576.812 106.723 573.313 102.84 566.316 102.84H565.548C562.305 102.925 559.447 104.589 556.972 107.832C554.497 110.989 552.663 115.512 551.468 121.4L550.06 121.656L535.34 98.744L541.996 94.264L549.804 105.656C553.644 97.1227 560.001 92.856 568.876 92.856C573.825 92.856 578.092 94.4773 581.676 97.72C585.26 100.963 587.052 105.699 587.052 111.928C587.052 116.024 586.327 120.888 584.876 126.52L580.012 150.2C576.94 164.963 575.404 178.061 575.404 189.496C575.404 202.467 577.623 213.261 582.06 221.88L579.244 223.8ZM650.716 140.088C651.569 140.088 652.252 139.704 652.764 138.936C653.361 138.083 653.66 137.016 653.66 135.736C653.66 134.285 653.105 132.92 651.996 131.64C650.887 130.275 649.18 129.464 646.876 129.208V134.2C646.961 138.125 648.241 140.088 650.716 140.088ZM650.588 147.128C649.308 147.128 647.985 147 646.62 146.744C640.988 145.123 637.873 140.771 637.276 133.688V128.952H630.364V122.168H637.276V117.048C637.361 101.603 644.657 93.7947 659.164 93.624H664.796C679.303 93.7947 686.599 101.603 686.684 117.048V147H676.572V116.28C676.231 106.893 672.22 102.072 664.54 101.816H659.42C651.313 102.072 647.132 106.083 646.876 113.848V122.168C650.033 122.253 653.233 123.32 656.476 125.368C659.719 127.331 661.596 130.36 662.108 134.456L662.236 136.376C662.236 139.448 661.169 142.008 659.036 144.056C656.988 146.104 654.172 147.128 650.588 147.128ZM617.052 140.088C619.441 140.088 620.679 138.125 620.764 134.2V129.208C618.289 129.464 616.54 130.275 615.516 131.64C614.492 133.005 613.98 134.413 613.98 135.864C613.98 138.68 615.004 140.088 617.052 140.088ZM612.316 124.6C614.449 123.32 617.265 122.509 620.764 122.168V109.368C620.764 104.589 618.631 102.2 614.364 102.2C612.145 102.2 610.268 103.096 608.732 104.888C607.281 106.68 606.556 109.368 606.556 112.952C606.897 117.816 608.817 121.699 612.316 124.6ZM617.052 147.128C613.724 147.128 610.951 146.189 608.732 144.312C606.513 142.435 605.404 139.832 605.404 136.504L605.532 134.456C605.873 131.725 606.812 129.464 608.348 127.672C604.593 125.88 601.82 123.363 600.028 120.12C598.236 116.877 597.34 113.464 597.34 109.88C597.34 106.808 598.151 103.821 599.772 100.92C602.417 95.8853 607.324 93.368 614.492 93.368C624.903 93.368 630.193 98.744 630.364 109.496V133.688C629.681 140.771 626.567 145.123 621.02 146.744C619.569 147 618.247 147.128 617.052 147.128ZM726.277 147.896L724.741 147.768C715.269 147.256 706.01 140.899 696.965 128.696L700.421 125.112C706.224 130.403 711.045 133.944 714.885 135.736C718.725 137.443 722.437 138.296 726.021 138.296C729.264 138.296 731.866 137.613 733.829 136.248C735.877 134.797 736.901 132.323 736.901 128.824V111.288C736.901 99.512 742.362 93.624 753.285 93.624C764.122 93.624 769.541 99.512 769.541 111.288V147H759.429V110.136C759.429 105.357 757.381 102.968 753.285 102.968C749.189 102.968 747.141 105.357 747.141 110.136V127.928C746.714 141.24 739.76 147.896 726.277 147.896ZM828.48 140.472C830.016 140.472 830.784 139.704 830.784 138.168C830.784 137.059 830.229 136.035 829.12 135.096C828.011 134.157 826.475 133.688 824.512 133.688C824.512 137.869 825.664 140.088 827.968 140.344L828.48 140.472ZM792.896 147.768C789.141 147.768 786.155 146.701 783.936 144.568C781.803 142.435 780.736 139.448 780.736 135.608C780.736 131.939 781.845 128.653 784.064 125.752C786.283 122.851 789.909 119.267 794.944 115C798.357 112.013 800.064 109.283 800.064 106.808C800.064 105.528 799.595 104.376 798.656 103.352C797.803 102.243 796.565 101.688 794.944 101.688C792.469 101.688 790.549 102.797 789.184 105.016C787.904 107.235 787.264 110.52 787.264 114.872V117.432L781.76 117.816C780.48 114.232 779.84 111.032 779.84 108.216C779.84 103.949 781.12 100.408 783.68 97.592C786.325 94.776 790.123 93.368 795.072 93.368C799.595 93.368 803.093 94.648 805.568 97.208C808.043 99.6827 809.28 102.584 809.28 105.912C809.28 108.813 808.469 111.501 806.848 113.976C805.227 116.451 802.795 119.011 799.552 121.656C793.152 126.776 789.952 131.256 789.952 135.096C789.952 137.741 791.275 139.064 793.92 139.064C796.139 139.064 798.699 137.869 801.6 135.48C807.317 130.616 811.755 127.885 814.912 127.288V117.048C815.083 101.603 822.379 93.7947 836.8 93.624H842.56C856.981 93.7947 864.277 101.603 864.448 117.048V147H854.208V116.28C853.952 106.893 849.941 102.072 842.176 101.816H837.184C829.077 102.072 824.853 106.083 824.512 113.848V126.392C828.523 126.477 831.808 127.715 834.368 130.104C837.013 132.408 838.336 135.267 838.336 138.68C838.251 141.325 837.44 143.459 835.904 145.08C834.368 146.701 832.064 147.512 828.992 147.512H827.712C824.299 147.256 821.525 145.933 819.392 143.544C817.6 141.411 816.363 138.68 815.68 135.352C814.059 136.035 812.693 136.888 811.584 137.912C807.403 141.837 803.989 144.483 801.344 145.848C798.699 147.128 795.883 147.768 792.896 147.768ZM904.027 262.072C897.798 257.037 894.683 247.352 894.683 233.016V109.496C894.683 105.059 892.934 102.84 889.435 102.84C886.022 102.84 884.315 105.059 884.315 109.496V162.744L874.715 163.128V110.008C874.715 99 879.75 93.496 889.819 93.496C899.803 93.496 904.795 99.0427 904.795 110.136V232.632C904.88 243.469 905.819 252.515 907.611 259.768L904.027 262.072ZM836.571 259.64C822.32 259.64 811.227 255.416 803.291 246.968C795.355 238.605 791.387 228.493 791.387 216.632C791.387 209.635 792.624 202.893 795.099 196.408C798.086 188.301 803.078 181.091 810.075 174.776C817.072 168.547 825.222 163.981 834.523 161.08C843.739 158.179 852.784 156.728 861.659 156.728C863.195 156.728 864.731 156.813 866.267 156.984L866.523 162.232C855.344 162.573 844.848 165.048 835.035 169.656C825.222 174.264 817.499 180.451 811.867 188.216C806.235 196.067 803.419 205.112 803.419 215.352C803.419 222.093 804.998 228.28 808.155 233.912C813.702 242.872 823.43 247.352 837.339 247.352C845.019 247.352 851.931 245.432 858.075 241.592C864.134 237.752 868.486 231.821 871.131 223.8C873.094 217.827 874.288 206.051 874.715 188.472V146.872H884.315V188.984C884.059 212.792 881.456 229.005 876.507 237.624C871.558 246.328 864.475 252.515 855.259 256.184C849.456 258.488 843.227 259.64 836.571 259.64ZM955.922 219.32L951.57 220.088C943.634 160.44 932.413 120.205 917.906 99.384L926.482 93.112C942.61 113.251 952.423 155.32 955.922 219.32ZM975.122 219.32L970.77 220.088C962.834 160.44 951.613 120.205 937.106 99.384L945.682 93.112C961.81 113.251 971.623 155.32 975.122 219.32Z" fill="#262626"/>
<path fill-rule="evenodd" clip-rule="evenodd" d="M128.215 21.1629L126.709 23.7667L121.464 20.743L122.97 18.1392L128.215 21.1629Z" fill="#262626"/>
<path fill-rule="evenodd" clip-rule="evenodd" d="M121.258 17.1524L115.736 26.7029L110.491 23.6792L116.013 14.1287L121.258 17.1524Z" fill="#262626"/>
<path fill-rule="evenodd" clip-rule="evenodd" d="M75.6959 111.996L36.9488 179.011L31.704 175.987L70.4511 108.973L75.6959 111.996Z" fill="#262626"/>
<path fill-rule="evenodd" clip-rule="evenodd" d="M118.631 37.739L79.8028 104.894L74.558 101.87L113.386 34.7153L118.631 37.739Z" fill="#262626"/>
<path fill-rule="evenodd" clip-rule="evenodd" d="M28.7888 193.123L27.283 195.727L22.0383 192.703L23.544 190.1L28.7888 193.123Z" fill="#262626"/>
<path fill-rule="evenodd" clip-rule="evenodd" d="M25.8857 182.102L20.3269 191.717L15.0822 188.693L20.641 179.078L25.8857 182.102Z" fill="#262626"/>
<path fill-rule="evenodd" clip-rule="evenodd" d="M38.9656 159.48L29.992 175L24.7473 171.976L33.7208 156.456L38.9656 159.48Z" fill="#262626"/>
<path fill-rule="evenodd" clip-rule="evenodd" d="M98.5284 56.4646L43.0962 152.335L37.8515 149.312L93.2837 53.4409L98.5284 56.4646Z" fill="#262626"/>
<path fill-rule="evenodd" clip-rule="evenodd" d="M111.598 33.8598L102.635 49.3629L97.3899 46.3392L106.353 30.8361L111.598 33.8598Z" fill="#262626"/>
<path fill-rule="evenodd" clip-rule="evenodd" d="M254.007 93.6833L252.501 96.2871L247.256 93.2634L248.762 90.6596L254.007 93.6833Z" fill="#FF4848"/>
<path fill-rule="evenodd" clip-rule="evenodd" d="M169.16 240.428L158.687 258.541L153.442 255.517L163.915 237.405L169.16 240.428Z" fill="#FF4848"/>
<path fill-rule="evenodd" clip-rule="evenodd" d="M154.581 265.644L153.075 268.247L147.83 265.224L149.336 262.62L154.581 265.644Z" fill="#FF4848"/>
<path fill-rule="evenodd" clip-rule="evenodd" d="M228.077 138.529L178.906 223.571L173.661 220.547L222.833 135.505L228.077 138.529Z" fill="#FF4848"/>
<path fill-rule="evenodd" clip-rule="evenodd" d="M248.395 103.389L237.84 121.644L232.595 118.621L243.15 100.366L248.395 103.389Z" fill="#FF4848"/>
<path fill-rule="evenodd" clip-rule="evenodd" d="M150.922 34.2538L149.417 36.8577L144.172 33.834L145.678 31.2302L150.922 34.2538Z" fill="#FF4848"/>
<path fill-rule="evenodd" clip-rule="evenodd" d="M66.0753 180.999L55.6024 199.112L50.3577 196.088L60.8306 177.975L66.0753 180.999Z" fill="#FF4848"/>
<path fill-rule="evenodd" clip-rule="evenodd" d="M51.4962 206.214L49.9904 208.818L44.7457 205.794L46.2515 203.19L51.4962 206.214Z" fill="#FF4848"/>
<path fill-rule="evenodd" clip-rule="evenodd" d="M125.441 78.3259L75.5658 164.586L70.321 161.562L120.196 75.3022L125.441 78.3259Z" fill="#FF4848"/>
<path fill-rule="evenodd" clip-rule="evenodd" d="M145.31 43.9601L134.952 61.874L129.708 58.8503L140.066 40.9364L145.31 43.9601Z" fill="#FF4848"/>
<path fill-rule="evenodd" clip-rule="evenodd" d="M193.027 80.7316L156.82 143.352L151.576 140.328L187.782 77.7079L193.027 80.7316Z" fill="#FBFBFB"/>
<path fill-rule="evenodd" clip-rule="evenodd" d="M156.729 143.509L152.328 144.716L151.484 140.485L151.741 140.042L156.986 143.066L156.729 143.509Z" fill="#FBFBFB"/>
<path fill-rule="evenodd" clip-rule="evenodd" d="M147.625 159.256L146.471 154.846L142.38 156.232L142.123 156.675L147.368 159.699L147.625 159.256Z" fill="#FBFBFB"/>
<path fill-rule="evenodd" clip-rule="evenodd" d="M107.283 229.028L101.724 238.643L96.4792 235.619L102.038 226.005L107.283 229.028Z" fill="#FBFBFB"/>
<path fill-rule="evenodd" clip-rule="evenodd" d="M147.625 159.255L111.389 221.926L106.144 218.902L142.38 156.232L147.625 159.255Z" fill="#FBFBFB"/>
<path fill-rule="evenodd" clip-rule="evenodd" d="M148.781 159.028L147.132 153.167L154.681 157.519L156.729 165.581L148.782 159.028H148.781Z" fill="#262626"/>
<path fill-rule="evenodd" clip-rule="evenodd" d="M150.076 140.578L151.726 146.44L144.177 142.087L142.128 134.025L150.076 140.578H150.076Z" fill="#262626"/>
<path fill-rule="evenodd" clip-rule="evenodd" d="M202.655 64.0787L197.133 73.6292L191.888 70.6055L197.41 61.0551L202.655 64.0787Z" fill="#FBFBFB"/>
<path fill-rule="evenodd" clip-rule="evenodd" d="M276.727 106.781L275.222 109.385L269.977 106.362L271.483 103.758L276.727 106.781Z" fill="#262626"/>
<path fill-rule="evenodd" clip-rule="evenodd" d="M177.456 278.475L175.795 281.346L170.551 278.323L172.211 275.451L177.456 278.475Z" fill="#262626"/>
<path fill-rule="evenodd" clip-rule="evenodd" d="M224.208 197.615L185.461 264.629L180.216 261.606L218.964 194.592L224.208 197.615Z" fill="#262626"/>
<path fill-rule="evenodd" clip-rule="evenodd" d="M267.099 123.434L228.337 190.474L223.092 187.45L261.854 120.411L267.099 123.434Z" fill="#262626"/>
<path fill-rule="evenodd" clip-rule="evenodd" d="M283.742 110.826L278.214 120.387L272.97 117.363L278.498 107.802L283.742 110.826Z" fill="#262626"/>
<path fill-rule="evenodd" clip-rule="evenodd" d="M274.086 127.527L265.119 143.036L259.874 140.012L268.841 124.504L274.086 127.527Z" fill="#262626"/>
<path fill-rule="evenodd" clip-rule="evenodd" d="M188.375 275.767L182.81 285.39L177.566 282.367L183.13 272.743L188.375 275.767Z" fill="#262626"/>
<path fill-rule="evenodd" clip-rule="evenodd" d="M201.45 253.153L192.4 268.805L187.155 265.781L196.205 250.13L201.45 253.153Z" fill="#262626"/>
<path fill-rule="evenodd" clip-rule="evenodd" d="M261.012 150.139L205.578 246.014L200.333 242.99L255.767 147.115L261.012 150.139Z" fill="#262626"/>
<path fill-rule="evenodd" clip-rule="evenodd" d="M272.514 116.051L198.483 73.3715L201.511 68.1345L275.542 110.814L272.514 116.051Z" fill="#262626"/>
<path fill-rule="evenodd" clip-rule="evenodd" d="M282.214 121.644L279.618 120.146L282.646 114.909L285.242 116.406L282.214 121.644Z" fill="#262626"/>
<path fill-rule="evenodd" clip-rule="evenodd" d="M191.333 69.2491L117.12 26.4646L120.148 21.2275L194.361 64.012L191.333 69.2491Z" fill="#262626"/>
<path fill-rule="evenodd" clip-rule="evenodd" d="M110.007 22.3644L107.35 20.8328L110.378 15.5957L113.035 17.1273L110.007 22.3644Z" fill="#262626"/>
<path fill-rule="evenodd" clip-rule="evenodd" d="M278.494 128.76L245.827 109.928L248.855 104.691L281.522 123.523L278.494 128.76Z" fill="#262626"/>
<path fill-rule="evenodd" clip-rule="evenodd" d="M238.677 105.805L142.805 50.5342L145.833 45.2971L241.705 100.568L238.677 105.805Z" fill="#262626"/>
<path fill-rule="evenodd" clip-rule="evenodd" d="M135.655 46.4124L103.084 27.6352L106.112 22.3981L138.683 41.1753L135.655 46.4124Z" fill="#262626"/>
<path fill-rule="evenodd" clip-rule="evenodd" d="M225.562 197.152L202.961 184.123L205.989 178.885L228.59 191.915L225.562 197.152Z" fill="#FBFBFB"/>
<path fill-rule="evenodd" clip-rule="evenodd" d="M235.603 202.941L232.587 201.202L235.615 195.965L238.631 197.704L235.603 202.941Z" fill="#FBFBFB"/>
<path fill-rule="evenodd" clip-rule="evenodd" d="M195.849 180.022L99.876 124.693L102.904 119.456L198.877 174.785L195.849 180.022Z" fill="#FBFBFB"/>
<path fill-rule="evenodd" clip-rule="evenodd" d="M92.7252 120.571L70.2125 107.592L73.2406 102.355L95.7533 115.334L92.7252 120.571Z" fill="#FBFBFB"/>
<path fill-rule="evenodd" clip-rule="evenodd" d="M63.0998 103.491L60.1924 101.815L63.2205 96.5778L66.1279 98.2536L63.0998 103.491Z" fill="#FBFBFB"/>
<path fill-rule="evenodd" clip-rule="evenodd" d="M40.4484 159.07L30.4283 153.293L33.4564 148.056L43.4765 153.833L40.4484 159.07Z" fill="#FF4848"/>
<path fill-rule="evenodd" clip-rule="evenodd" d="M205.839 254.419L195.917 248.699L198.945 243.462L208.867 249.182L205.839 254.419Z" fill="#FF4848"/>
<path fill-rule="evenodd" clip-rule="evenodd" d="M188.864 244.632L121.86 206.004L124.888 200.767L191.892 239.395L188.864 244.632Z" fill="#FF4848"/>
<path fill-rule="evenodd" clip-rule="evenodd" d="M114.857 201.967L47.4052 163.08L50.4332 157.843L117.885 196.73L114.857 201.967Z" fill="#FF4848"/>
<path fill-rule="evenodd" clip-rule="evenodd" d="M99.8458 55.9809L90.2778 50.4646L93.3059 45.2275L102.874 50.7438L99.8458 55.9809Z" fill="#FF4848"/>
<path fill-rule="evenodd" clip-rule="evenodd" d="M265.097 151.25L255.47 145.7L258.498 140.463L268.125 146.012L265.097 151.25Z" fill="#FF4848"/>
<path fill-rule="evenodd" clip-rule="evenodd" d="M248.358 141.599L181.398 102.997L184.426 97.7598L251.386 136.362L248.358 141.599Z" fill="#FF4848"/>
<path fill-rule="evenodd" clip-rule="evenodd" d="M174.262 98.8823L106.959 60.0811L109.987 54.8441L177.29 93.6453L174.262 98.8823Z" fill="#FF4848"/>
<path fill-rule="evenodd" clip-rule="evenodd" d="M16.1927 184.618L13.5815 183.112L16.6096 177.875L19.2208 179.381L16.1927 184.618Z" fill="#262626"/>
<path fill-rule="evenodd" clip-rule="evenodd" d="M97.543 231.517L23.3054 188.718L26.3335 183.481L100.571 226.28L97.543 231.517Z" fill="#262626"/>
<path fill-rule="evenodd" clip-rule="evenodd" d="M188.401 283.898L185.79 282.392L188.818 277.155L191.429 278.661L188.401 283.898Z" fill="#262626"/>
<path fill-rule="evenodd" clip-rule="evenodd" d="M178.701 278.305L104.694 235.64L107.722 230.403L181.729 273.068L178.701 278.305Z" fill="#262626"/>
<path fill-rule="evenodd" clip-rule="evenodd" d="M153.038 254.162L57.0227 198.809L60.0508 193.572L156.066 248.925L153.038 254.162Z" fill="#262626"/>
<path fill-rule="evenodd" clip-rule="evenodd" d="M192.454 276.887L160.108 258.239L163.136 253.002L195.482 271.65L192.454 276.887Z" fill="#262626"/>
<path fill-rule="evenodd" clip-rule="evenodd" d="M49.91 194.709L17.6345 176.101L20.6626 170.864L52.9381 189.472L49.91 194.709Z" fill="#262626"/>
<path fill-rule="evenodd" clip-rule="evenodd" d="M122.481 61.0787L120.364 53.1912L126.214 51.6259L128.331 59.5134L122.481 61.0787Z" fill="#262626"/>
<path fill-rule="evenodd" clip-rule="evenodd" d="M172.611 247.893L170.563 240.263L176.413 238.697L178.461 246.327L172.611 247.893Z" fill="#262626"/>
<path fill-rule="evenodd" clip-rule="evenodd" d="M165.974 223.16L148.77 159.048L154.62 157.483L171.824 221.595L165.974 223.16Z" fill="#262626"/>
<path fill-rule="evenodd" clip-rule="evenodd" d="M144.226 142.116L126.961 77.7725L132.811 76.2072L150.076 140.551L144.226 142.116Z" fill="#262626"/>
<path fill-rule="evenodd" clip-rule="evenodd" d="M247.688 126.595L240.115 128.621L238.547 122.78L246.121 120.754L247.688 126.595Z" fill="#262626"/>
<path fill-rule="evenodd" clip-rule="evenodd" d="M222.136 133.432L158.73 150.397L157.163 144.556L220.569 127.59L222.136 133.432Z" fill="#262626"/>
<path fill-rule="evenodd" clip-rule="evenodd" d="M141.661 154.964L77.3734 172.164L75.8058 166.323L140.094 149.122L141.661 154.964Z" fill="#262626"/>
<path fill-rule="evenodd" clip-rule="evenodd" d="M60.3441 176.721L52.703 178.766L51.1354 172.924L58.7765 170.879L60.3441 176.721Z" fill="#262626"/>
<path fill-rule="evenodd" clip-rule="evenodd" d="M222.748 135.654L223.688 134.028L230.2 132.375L231.277 132.996L228.078 138.53L222.748 135.654Z" fill="#FF4848"/>
<path fill-rule="evenodd" clip-rule="evenodd" d="M124.89 79.2775L125.83 77.6519L124.007 71.1941L122.93 70.5732L119.731 76.1067L124.89 79.2775Z" fill="#FF4848"/>
<path fill-rule="evenodd" clip-rule="evenodd" d="M76.0301 163.782L75.09 165.408L68.5781 167.061L67.5007 166.44L70.6998 160.906L76.0301 163.782Z" fill="#FF4848"/>
<path fill-rule="evenodd" clip-rule="evenodd" d="M173.904 220.129L172.964 221.755L174.787 228.212L175.864 228.833L179.064 223.3L173.904 220.128V220.129Z" fill="#FF4848"/>
<path fill-rule="evenodd" clip-rule="evenodd" d="M221.467 127.34L228.868 131.607L216.223 135.045L217.694 128.404L221.467 127.34Z" fill="#262626"/>
<path fill-rule="evenodd" clip-rule="evenodd" d="M132.953 76.3507L125.552 72.084L128.893 84.7378L133.916 80.1452L132.953 76.35V76.3507Z" fill="#262626"/>
<path fill-rule="evenodd" clip-rule="evenodd" d="M77.5092 172.242L70.1083 167.976L82.7532 164.538L81.282 171.178L77.5092 172.242Z" fill="#262626"/>
<path fill-rule="evenodd" clip-rule="evenodd" d="M166.042 223.199L173.443 227.466L170.204 215.659L165.079 219.404L166.042 223.199Z" fill="#262626"/>
<path fill-rule="evenodd" clip-rule="evenodd" d="M242.183 121.831L232.678 124.334L240.079 128.6L247.547 126.5L242.183 121.831Z" fill="#262626"/>
<path fill-rule="evenodd" clip-rule="evenodd" d="M127.371 55.9156L129.953 65.3864L122.552 61.1197L120.64 53.6118L127.37 55.9156H127.371Z" fill="#262626"/>
<path fill-rule="evenodd" clip-rule="evenodd" d="M56.7597 177.699L66.2644 175.196L58.8634 170.93L51.3956 173.03L56.7597 177.699Z" fill="#262626"/>
<path fill-rule="evenodd" clip-rule="evenodd" d="M171.591 243.922L169.009 234.451L176.41 238.718L178.322 246.226L171.591 243.922Z" fill="#262626"/>
<path fill-rule="evenodd" clip-rule="evenodd" d="M238.247 120.942L237.734 121.829L231.346 123.566L230.139 122.87L233.088 117.77L238.248 120.942H238.247Z" fill="#FF4848"/>
<path fill-rule="evenodd" clip-rule="evenodd" d="M129.911 58.4843L129.399 59.3713L131.086 65.7646L132.292 66.4608L135.241 61.3608L129.911 58.4843Z" fill="#FF4848"/>
<path fill-rule="evenodd" clip-rule="evenodd" d="M60.5309 178.494L61.0434 177.607L67.4316 175.87L68.6384 176.566L65.6894 181.666L60.5309 178.494Z" fill="#FF4848"/>
<path fill-rule="evenodd" clip-rule="evenodd" d="M168.851 240.963L169.363 240.076L167.676 233.683L166.47 232.987L163.521 238.087L168.851 240.962V240.963Z" fill="#FF4848"/>
<path fill-rule="evenodd" clip-rule="evenodd" d="M140.175 149.156L145.947 152.484L146.33 153.871L141.279 155.097L138.016 149.669L140.175 149.156Z" fill="#262626"/>
<path fill-rule="evenodd" clip-rule="evenodd" d="M158.683 150.45L152.91 147.122L152.528 145.735L164.817 142.573L163.495 149.102L158.683 150.45Z" fill="#262626"/>
</svg>
