<?xml version="1.0" encoding="UTF-8" standalone="no"?><!DOCTYPE svg PUBLIC "-//W3C//DTD SVG 1.1//EN" "http://www.w3.org/Graphics/SVG/1.1/DTD/svg11.dtd"><svg width="100%" height="100%" viewBox="0 0 416 418" version="1.1" xmlns="http://www.w3.org/2000/svg" xmlns:xlink="http://www.w3.org/1999/xlink" xml:space="preserve" xmlns:serif="http://www.serif.com/" style="fill-rule:evenodd;clip-rule:evenodd;stroke-linejoin:round;stroke-miterlimit:2;"><rect id="Black-Silhouette" serif:id="Black Silhouette" x="-0" y="0" width="415.756" height="417.33" style="fill:none;"/><g id="Klatkat-1" serif:id="Klatkat 1"><g id="Klatkat"><g id="Vertical"><path d="M178.112,27.821l-141.732,245.488l-7.365,-4.252l141.732,-245.488l7.365,4.252Z"/><path d="M168.343,22.181l-141.732,245.488l-7.365,-4.252l141.732,-245.488l7.365,4.252Z"/><path d="M354.754,129.806l-141.732,245.488l-7.365,-4.252l141.732,-245.488l7.365,4.252Z"/><path d="M209.998,46.231l-141.732,245.488l-7.365,-4.252l141.732,-245.488l7.365,4.252Z"/><path d="M282.644,88.173l-141.732,245.488l-7.365,-4.252l141.732,-245.488l7.365,4.252Z"/><path d="M386.659,148.226l-141.732,245.488l-7.365,-4.252l141.732,-245.488l7.365,4.252Z"/><path d="M396.509,153.913l-141.732,245.488l-7.365,-4.252l141.732,-245.488l7.365,4.252Z"/></g><g id="Horizontal"><path d="M394.364,169.126l-245.488,-141.732l4.252,-7.365l245.488,141.732l-4.252,7.365Z"/><path d="M389.14,179.134l-246.319,-142.212l4.252,-7.365l246.319,142.212l-4.252,7.365Z"/><path d="M328.911,283.453l-246.319,-142.212l4.252,-7.365l246.319,142.212l-4.252,7.365Z"/><path d="M287.115,355.846l-246.319,-142.212l4.252,-7.365l246.319,142.212l-4.252,7.365Z"/><path d="M370.326,210.76l-245.488,-141.732l4.252,-7.365l245.488,141.732l-4.252,7.365Z"/><path d="M262.627,397.301l-245.488,-141.732l4.252,-7.365l245.488,141.732l-4.252,7.365Z"/><path d="M268.319,387.442l-245.488,-141.732l4.252,-7.365l245.488,141.732l-4.252,7.365Z"/></g></g><g id="Cross"><path d="M240.454,346.668l-73.366,-273.806l8.214,-2.201l73.366,273.806l-8.214,2.201Z"/><path d="M345.881,176.089l-273.806,73.366l-2.201,-8.214l273.806,-73.366l2.201,8.214Z"/></g></g></svg>