<?xml version="1.0" encoding="UTF-8" standalone="no"?><!DOCTYPE svg PUBLIC "-//W3C//DTD SVG 1.1//EN" "http://www.w3.org/Graphics/SVG/1.1/DTD/svg11.dtd"><svg width="100%" height="100%" viewBox="0 0 416 418" version="1.1" xmlns="http://www.w3.org/2000/svg" xmlns:xlink="http://www.w3.org/1999/xlink" xml:space="preserve" xmlns:serif="http://www.serif.com/" style="fill-rule:evenodd;clip-rule:evenodd;stroke-linejoin:round;stroke-miterlimit:2;"><rect id="Icon-Only" serif:id="Icon Only" x="-0" y="0" width="415.756" height="417.33" style="fill:none;"/><g id="Klatkat-2" serif:id="Klatkat 2"><g id="Vertical"><path d="M178.386,29.487l-2.095,3.628l-7.297,-4.213l2.095,-3.628l7.297,4.213Z" style="fill:#262626;"/><path d="M168.707,23.899l-7.683,13.307l-7.297,-4.213l7.683,-13.307l7.297,4.213Z" style="fill:#262626;"/><path d="M105.316,156.048l-53.909,93.374l-7.297,-4.213l53.909,-93.374l7.297,4.213Z" style="fill:#262626;"/><path d="M165.052,52.583l-54.022,93.569l-7.297,-4.213l54.022,-93.569l7.297,4.213Z" style="fill:#262626;"/><path d="M40.054,269.085l-2.095,3.628l-7.297,-4.213l2.095,-3.628l7.297,4.213Z" style="fill:#262626;"/><path d="M36.015,253.729l-7.734,13.396l-7.297,-4.213l7.734,-13.396l7.297,4.213Z" style="fill:#262626;"/><path d="M54.213,222.209l-12.485,21.624l-7.297,-4.213l12.485,-21.624l7.297,4.213Z" style="fill:#262626;"/><path d="M137.083,78.674l-77.123,133.58l-7.297,-4.213l77.123,-133.58l7.297,4.213Z" style="fill:#262626;"/><path d="M155.267,47.178l-12.471,21.601l-7.297,-4.213l12.471,-21.601l7.297,4.213Z" style="fill:#262626;"/><path d="M353.401,130.532l-2.095,3.628l-7.297,-4.213l2.095,-3.628l7.297,4.213Z" style="fill:#ff4848;"/><path d="M235.353,334.997l-14.571,25.237l-7.297,-4.213l14.571,-25.237l7.297,4.213Z" style="fill:#ff4848;"/><path d="M215.069,370.13l-2.095,3.628l-7.297,-4.213l2.095,-3.628l7.297,4.213Z" style="fill:#ff4848;"/><path d="M317.325,193.017l-68.412,118.492l-7.297,-4.213l68.412,-118.492l7.297,4.213Z" style="fill:#ff4848;"/><path d="M345.593,144.056l-14.685,25.435l-7.297,-4.213l14.685,-25.435l7.297,4.213Z" style="fill:#ff4848;"/><path d="M209.979,47.727l-2.095,3.628l-7.297,-4.213l2.095,-3.628l7.297,4.213Z" style="fill:#ff4848;"/><path d="M91.931,252.192l-14.571,25.237l-7.297,-4.213l14.571,-25.237l7.297,4.213Z" style="fill:#ff4848;"/><path d="M71.647,287.325l-2.095,3.628l-7.297,-4.213l2.095,-3.628l7.297,4.213Z" style="fill:#ff4848;"/><path d="M174.526,109.134l-69.391,120.189l-7.297,-4.213l69.391,-120.189l7.297,4.213Z" style="fill:#ff4848;"/><path d="M202.171,61.251l-14.411,24.96l-7.297,-4.213l14.411,-24.96l7.297,4.213Z" style="fill:#ff4848;"/><path d="M268.559,112.486l-50.374,87.251l-7.297,-4.213l50.374,-87.251l7.297,4.213Z" style="fill:#fbfbfb;"/><path d="M218.058,199.956l-6.123,1.682l-1.174,-5.895l0.357,-0.618l7.297,4.213l-0.357,0.618Z" style="fill:#fbfbfb;"/><path d="M205.391,221.896l-1.605,-6.144l-5.692,1.931l-0.357,0.618l7.297,4.213l0.357,-0.618Z" style="fill:#fbfbfb;"/><path d="M149.263,319.113l-7.734,13.396l-7.297,-4.213l7.734,-13.396l7.297,4.213Z" style="fill:#fbfbfb;"/><path d="M205.391,221.896l-50.415,87.321l-7.297,-4.213l50.415,-87.321l7.297,4.213Z" style="fill:#fbfbfb;"/><path d="M207,221.579l-2.295,-8.167l10.503,6.064l2.85,11.233l-11.057,-9.13Z" style="fill:#262626;"/><path d="M208.802,195.872l2.295,8.167l-10.503,-6.064l-2.85,-11.233l11.057,9.13Z" style="fill:#262626;"/><path d="M281.955,89.283l-7.683,13.307l-7.297,-4.213l7.683,-13.307l7.297,4.213Z" style="fill:#fbfbfb;"/><path d="M385.012,148.782l-2.095,3.628l-7.297,-4.213l2.095,-3.628l7.297,4.213Z" style="fill:#262626;"/><path d="M246.895,388.008l-2.31,4.001l-7.297,-4.213l2.31,-4.001l7.297,4.213Z" style="fill:#262626;"/><path d="M311.942,275.344l-53.909,93.373l-7.297,-4.213l53.909,-93.373l7.297,4.213Z" style="fill:#262626;"/><path d="M371.616,171.985l-53.93,93.409l-7.297,-4.213l53.93,-93.409l7.297,4.213Z" style="fill:#262626;"/><path d="M394.772,154.417l-7.691,13.322l-7.297,-4.213l7.691,-13.322l7.297,4.213Z" style="fill:#262626;"/><path d="M381.337,177.688l-12.476,21.609l-7.297,-4.213l12.476,-21.609l7.297,4.213Z" style="fill:#262626;"/><path d="M262.087,384.235l-7.742,13.409l-7.297,-4.213l7.742,-13.409l7.297,4.213Z" style="fill:#262626;"/><path d="M280.278,352.727l-12.591,21.808l-7.297,-4.213l12.591,-21.808l7.297,4.213Z" style="fill:#262626;"/><path d="M363.147,209.193l-77.126,133.586l-7.297,-4.213l77.126,-133.586l7.297,4.213Z" style="fill:#262626;"/></g><g id="Horizontal"><path d="M379.15,161.698l-103,-59.467l4.213,-7.297l103,59.467l-4.213,7.297Z" style="fill:#262626;"/><path d="M392.646,169.49l-3.612,-2.086l4.213,-7.297l3.612,2.086l-4.213,7.297Z" style="fill:#262626;"/><path d="M266.202,96.487l-103.253,-59.613l4.213,-7.297l103.253,59.613l-4.213,7.297Z" style="fill:#262626;"/><path d="M153.053,31.161l-3.696,-2.134l4.213,-7.297l3.696,2.134l-4.213,7.297Z" style="fill:#262626;"/><path d="M387.47,179.406l-45.45,-26.24l4.213,-7.297l45.45,26.24l-4.213,7.297Z" style="fill:#262626;"/><path d="M332.072,147.422l-133.387,-77.011l4.213,-7.297l133.387,77.011l-4.213,7.297Z" style="fill:#262626;"/><path d="M188.737,64.668l-45.316,-26.163l4.213,-7.297l45.316,26.163l-4.213,7.297Z" style="fill:#262626;"/><path d="M313.825,274.698l-31.444,-18.154l4.213,-7.297l31.444,18.154l-4.213,7.297Z" style="fill:#fbfbfb;"/><path d="M327.796,282.764l-4.197,-2.423l4.213,-7.297l4.197,2.423l-4.213,7.297Z" style="fill:#fbfbfb;"/><path d="M272.485,250.831l-133.527,-77.092l4.213,-7.297l133.527,77.092l-4.213,7.297Z" style="fill:#fbfbfb;"/><path d="M129.009,167.995l-31.322,-18.084l4.213,-7.297l31.322,18.084l-4.213,7.297Z" style="fill:#fbfbfb;"/><path d="M87.791,144.197l-4.045,-2.335l4.213,-7.297l4.045,2.335l-4.213,7.297Z" style="fill:#fbfbfb;"/><path d="M56.276,221.637l-13.941,-8.049l4.213,-7.297l13.941,8.049l-4.213,7.297Z" style="fill:#ff4848;"/><path d="M286.385,354.491l-13.805,-7.97l4.213,-7.297l13.805,7.97l-4.213,7.297Z" style="fill:#ff4848;"/><path d="M262.767,340.854l-93.223,-53.822l4.213,-7.297l93.223,53.822l-4.213,7.297Z" style="fill:#ff4848;"/><path d="M159.801,281.407l-93.846,-54.182l4.213,-7.297l93.846,54.182l-4.213,7.297Z" style="fill:#ff4848;"/><path d="M138.916,78l-13.312,-7.686l4.213,-7.297l13.312,7.686l-4.213,7.297Z" style="fill:#ff4848;"/><path d="M368.83,210.741l-13.393,-7.732l4.213,-7.297l13.393,7.732l-4.213,7.297Z" style="fill:#ff4848;"/><path d="M345.541,197.295l-93.161,-53.786l4.213,-7.297l93.161,53.786l-4.213,7.297Z" style="fill:#ff4848;"/><path d="M242.451,137.776l-93.639,-54.063l4.213,-7.297l93.639,54.063l-4.213,7.297Z" style="fill:#ff4848;"/><path d="M22.529,257.234l-3.633,-2.098l4.213,-7.297l3.633,2.098l-4.213,7.297Z" style="fill:#262626;"/><path d="M135.712,322.58l-103.287,-59.633l4.213,-7.297l103.287,59.633l-4.213,7.297Z" style="fill:#262626;"/><path d="M262.123,395.564l-3.633,-2.098l4.213,-7.297l3.633,2.098l-4.213,7.297Z" style="fill:#262626;"/><path d="M248.627,387.772l-102.966,-59.447l4.213,-7.297l102.966,59.447l-4.213,7.297Z" style="fill:#262626;"/><path d="M212.922,354.133l-133.586,-77.126l4.213,-7.297l133.586,77.126l-4.213,7.297Z" style="fill:#262626;"/><path d="M267.762,385.796l-45.003,-25.983l4.213,-7.297l45.003,25.983l-4.213,7.297Z" style="fill:#262626;"/><path d="M69.44,271.294l-44.905,-25.926l4.213,-7.297l44.905,25.926l-4.213,7.297Z" style="fill:#262626;"/></g><g id="Cross"><path d="M170.408,85.103l-2.945,-10.99l8.139,-2.181l2.945,10.99l-8.139,2.181Z" style="fill:#262626;"/><path d="M240.154,345.397l-2.849,-10.631l8.139,-2.181l2.849,10.631l-8.139,2.181Z" style="fill:#262626;"/><path d="M230.92,310.936l-23.936,-89.329l8.139,-2.181l23.936,89.329l-8.139,2.181Z" style="fill:#262626;"/><path d="M200.663,198.015l-24.022,-89.652l8.139,-2.181l24.022,89.652l-8.139,2.181Z" style="fill:#262626;"/><path d="M344.61,176.389l-10.537,2.823l-2.181,-8.139l10.537,-2.823l2.181,8.139Z" style="fill:#262626;"/><path d="M309.059,185.915l-88.217,23.638l-2.181,-8.139l88.217,-23.638l2.181,8.139Z" style="fill:#262626;"/><path d="M197.094,215.916l-89.444,23.966l-2.181,-8.139l89.444,-23.966l2.181,8.139Z" style="fill:#262626;"/><path d="M83.957,246.231l-10.631,2.849l-2.181,-8.139l10.631,-2.849l2.181,8.139Z" style="fill:#262626;"/></g><g id="Corner"><path d="M309.91,189.011l1.308,-2.265l9.06,-2.303l1.499,0.865l-4.451,7.71l-7.416,-4.007Z" style="fill:#ff4848;"/><path d="M173.76,110.46l1.308,-2.265l-2.536,-8.998l-1.499,-0.865l-4.451,7.71l7.178,4.419Z" style="fill:#ff4848;"/><path d="M105.781,228.203l-1.308,2.265l-9.06,2.303l-1.499,-0.865l4.451,-7.71l7.416,4.007Z" style="fill:#ff4848;"/><path d="M241.954,306.713l-1.308,2.265l2.536,8.998l1.499,0.865l4.451,-7.71l-7.178,-4.419Z" style="fill:#ff4848;"/><path d="M308.128,177.427l10.297,5.945l-17.593,4.79l2.047,-9.252l5.249,-1.483Z" style="fill:#262626;"/><path d="M184.978,106.382l-10.297,-5.945l4.648,17.631l6.989,-6.399l-1.34,-5.288Z" style="fill:#262626;"/><path d="M107.839,239.991l-10.297,-5.945l17.593,-4.79l-2.047,9.252l-5.249,1.483Z" style="fill:#262626;"/><path d="M231.015,310.991l10.297,5.945l-4.506,-16.451l-7.131,5.218l1.34,5.288Z" style="fill:#262626;"/><path d="M336.95,169.751l-13.224,3.487l10.297,5.945l10.39,-2.927l-7.462,-6.505Z" style="fill:#262626;"/><path d="M177.212,77.909l3.592,13.196l-10.297,-5.945l-2.66,-10.461l9.364,3.21Z" style="fill:#262626;"/><path d="M78.97,247.594l13.224,-3.487l-10.297,-5.945l-10.39,2.927l7.462,6.505Z" style="fill:#262626;"/><path d="M238.735,339.865l-3.592,-13.196l10.297,5.945l2.66,10.461l-9.364,-3.21Z" style="fill:#262626;"/><path d="M331.474,168.512l-0.713,1.236l-8.888,2.421l-1.679,-0.97l4.103,-7.106l7.178,4.419Z" style="fill:#ff4848;"/><path d="M180.746,81.488l-0.713,1.236l2.347,8.908l1.679,0.97l4.103,-7.106l-7.416,-4.007Z" style="fill:#ff4848;"/><path d="M84.217,248.702l0.713,-1.236l8.888,-2.421l1.679,0.97l-4.103,7.106l-7.178,-4.419Z" style="fill:#ff4848;"/><path d="M234.923,335.742l0.713,-1.236l-2.347,-8.908l-1.679,-0.97l-4.103,7.106l7.416,4.007Z" style="fill:#ff4848;"/><path d="M195.026,207.824l8.031,4.637l0.532,1.932l-7.027,1.709l-4.539,-7.563l3.003,-0.715Z" style="fill:#262626;"/><path d="M220.776,209.627l-8.031,-4.637l-0.532,-1.932l17.097,-4.407l-1.838,9.098l-6.695,1.878Z" style="fill:#262626;"/></g></g></svg>