<svg width="990" height="300" viewBox="0 0 990 300" fill="none" xmlns="http://www.w3.org/2000/svg">
<path d="M424.44 147H414.328V109.496C414.328 104.291 412.621 101.688 409.208 101.688H408.952C405.283 101.859 402.595 103.992 400.888 108.088V147H390.776V112.312L397.816 100.536C400.717 96.0133 404.728 93.752 409.848 93.752C419.405 93.752 424.269 99.2133 424.44 110.136V147ZM400.888 147H390.776V113.08C390.776 106.168 387.747 102.712 381.688 102.712C376.312 102.712 372.813 106.083 371.192 112.824H364.152C362.275 105.4 358.819 101.688 353.784 101.688C347.981 101.688 345.08 106.211 345.08 115.256C345.08 126.093 348.92 134.584 356.6 140.728L355.96 147H330.104C322.339 147 317.219 144.141 314.744 138.424C314.061 136.547 313.72 134.669 313.72 132.792C313.72 129.805 314.488 126.776 316.024 123.704L321.656 111.928C322.424 110.136 322.808 108.515 322.808 107.064C322.808 105.613 322.339 104.376 321.4 103.352C320.461 102.243 319.267 101.688 317.816 101.688L316.408 101.816C312.312 102.755 310.264 107.107 310.264 114.872V117.432L304.76 117.816C303.48 114.232 302.84 111.032 302.84 108.216C302.84 103.949 304.12 100.408 306.68 97.592C309.325 94.776 313.123 93.368 318.072 93.368C322.595 93.368 326.093 94.6907 328.568 97.336C331.128 99.9813 332.408 103.309 332.408 107.32C332.408 110.307 331.64 113.592 330.104 117.176C326.179 124.344 324.216 129.592 324.216 132.92C324.216 136.76 326.221 138.68 330.232 138.68H344.312C338.253 133.304 335.224 125.624 335.224 115.64C335.224 108.813 336.803 103.395 339.96 99.384C343.203 95.3733 347.811 93.368 353.784 93.368C361.208 93.5387 365.944 96.0987 367.992 101.048C371.235 96.44 376.056 94.136 382.456 94.136C394.744 94.136 400.888 100.621 400.888 113.592V147ZM488.091 140.088C488.944 140.088 489.627 139.704 490.139 138.936C490.736 138.083 491.035 137.016 491.035 135.736C491.035 134.285 490.48 132.92 489.371 131.64C488.262 130.275 486.555 129.464 484.251 129.208V134.2C484.336 138.125 485.616 140.088 488.091 140.088ZM487.963 147.128C486.683 147.128 485.36 147 483.995 146.744C478.363 145.123 475.248 140.771 474.651 133.688V128.952H467.739V122.168H474.651V117.048C474.736 101.603 482.032 93.7947 496.539 93.624H502.171C516.678 93.7947 523.974 101.603 524.059 117.048V147H513.947V116.28C513.606 106.893 509.595 102.072 501.915 101.816H496.795C488.688 102.072 484.507 106.083 484.251 113.848V122.168C487.408 122.253 490.608 123.32 493.851 125.368C497.094 127.331 498.971 130.36 499.483 134.456L499.611 136.376C499.611 139.448 498.544 142.008 496.411 144.056C494.363 146.104 491.547 147.128 487.963 147.128ZM454.427 140.088C456.816 140.088 458.054 138.125 458.139 134.2V129.208C455.664 129.464 453.915 130.275 452.891 131.64C451.867 133.005 451.355 134.413 451.355 135.864C451.355 138.68 452.379 140.088 454.427 140.088ZM449.691 124.6C451.824 123.32 454.64 122.509 458.139 122.168V109.368C458.139 104.589 456.006 102.2 451.739 102.2C449.52 102.2 447.643 103.096 446.107 104.888C444.656 106.68 443.931 109.368 443.931 112.952C444.272 117.816 446.192 121.699 449.691 124.6ZM454.427 147.128C451.099 147.128 448.326 146.189 446.107 144.312C443.888 142.435 442.779 139.832 442.779 136.504L442.907 134.456C443.248 131.725 444.187 129.464 445.723 127.672C441.968 125.88 439.195 123.363 437.403 120.12C435.611 116.877 434.715 113.464 434.715 109.88C434.715 106.808 435.526 103.821 437.147 100.92C439.792 95.8853 444.699 93.368 451.867 93.368C462.278 93.368 467.568 98.744 467.739 109.496V133.688C467.056 140.771 463.942 145.123 458.395 146.744C456.944 147 455.622 147.128 454.427 147.128ZM524.1 215.736H513.86V183.096C513.86 174.733 509.337 170.552 500.292 170.552C494.063 170.552 488.772 173.88 484.42 180.536C498.927 182.84 506.18 189.496 506.18 200.504C506.18 210.317 500.548 215.395 489.284 215.736H481.22L481.732 207.416H489.54C494.063 207.416 496.324 205.24 496.324 200.888C496.324 192.867 489.668 188.173 476.356 186.808L473.54 181.944C478.489 169.485 487.535 162.957 500.676 162.36C516.121 162.36 523.929 168.973 524.1 182.2V215.736ZM483.524 215.736H474.18C468.292 215.736 463.897 214.285 460.996 211.384C458.095 208.483 456.644 204.6 456.644 199.736C456.644 196.237 457.753 190.221 459.972 181.688C460.484 179.725 460.74 178.061 460.74 176.696C460.74 174.904 460.356 173.411 459.588 172.216C458.82 171.021 457.668 170.424 456.132 170.424L454.724 170.552C450.628 171.491 448.58 175.843 448.58 183.608V186.168L443.076 186.552C442.137 182.968 441.668 179.768 441.668 176.952C441.668 172.685 442.905 169.144 445.38 166.328C447.769 163.512 451.439 162.104 456.388 162.104C461.252 162.104 464.879 163.384 467.268 165.944C469.572 168.504 470.724 171.917 470.724 176.184C470.724 178.573 470.34 181.176 469.572 183.992C467.78 190.477 466.841 195.213 466.756 198.2V198.84C466.756 201.485 467.524 203.576 469.06 205.112C470.511 206.648 472.644 207.416 475.46 207.416H483.396L483.524 215.736ZM455.604 84L431.924 70.304L436.404 63.264L453.044 72.864C458.847 51.2747 472.329 40.48 493.492 40.48C505.78 40.48 515.337 45.6 522.164 55.84L521.396 60.704L466.1 83.872L463.412 78.24L508.724 56.224C505.055 51.7013 499.764 49.3547 492.852 49.184C481.844 49.696 473.567 53.3653 468.02 60.192C462.473 66.9333 458.335 74.8693 455.604 84ZM578.244 223.8C569.113 214.072 564.548 200.376 564.548 182.712C564.548 173.155 565.913 162.403 568.644 150.456L573.764 127.288C575.129 121.059 575.812 116.792 575.812 114.488C575.812 106.723 572.313 102.84 565.316 102.84H564.548C561.305 102.925 558.447 104.589 555.972 107.832C553.497 110.989 551.663 115.512 550.468 121.4L549.06 121.656L534.34 98.744L540.996 94.264L548.804 105.656C552.644 97.1227 559.001 92.856 567.876 92.856C572.825 92.856 577.092 94.4773 580.676 97.72C584.26 100.963 586.052 105.699 586.052 111.928C586.052 116.024 585.327 120.888 583.876 126.52L579.012 150.2C575.94 164.963 574.404 178.061 574.404 189.496C574.404 202.467 576.623 213.261 581.06 221.88L578.244 223.8ZM649.716 140.088C650.569 140.088 651.252 139.704 651.764 138.936C652.361 138.083 652.66 137.016 652.66 135.736C652.66 134.285 652.105 132.92 650.996 131.64C649.887 130.275 648.18 129.464 645.876 129.208V134.2C645.961 138.125 647.241 140.088 649.716 140.088ZM649.588 147.128C648.308 147.128 646.985 147 645.62 146.744C639.988 145.123 636.873 140.771 636.276 133.688V128.952H629.364V122.168H636.276V117.048C636.361 101.603 643.657 93.7947 658.164 93.624H663.796C678.303 93.7947 685.599 101.603 685.684 117.048V147H675.572V116.28C675.231 106.893 671.22 102.072 663.54 101.816H658.42C650.313 102.072 646.132 106.083 645.876 113.848V122.168C649.033 122.253 652.233 123.32 655.476 125.368C658.719 127.331 660.596 130.36 661.108 134.456L661.236 136.376C661.236 139.448 660.169 142.008 658.036 144.056C655.988 146.104 653.172 147.128 649.588 147.128ZM616.052 140.088C618.441 140.088 619.679 138.125 619.764 134.2V129.208C617.289 129.464 615.54 130.275 614.516 131.64C613.492 133.005 612.98 134.413 612.98 135.864C612.98 138.68 614.004 140.088 616.052 140.088ZM611.316 124.6C613.449 123.32 616.265 122.509 619.764 122.168V109.368C619.764 104.589 617.631 102.2 613.364 102.2C611.145 102.2 609.268 103.096 607.732 104.888C606.281 106.68 605.556 109.368 605.556 112.952C605.897 117.816 607.817 121.699 611.316 124.6ZM616.052 147.128C612.724 147.128 609.951 146.189 607.732 144.312C605.513 142.435 604.404 139.832 604.404 136.504L604.532 134.456C604.873 131.725 605.812 129.464 607.348 127.672C603.593 125.88 600.82 123.363 599.028 120.12C597.236 116.877 596.34 113.464 596.34 109.88C596.34 106.808 597.151 103.821 598.772 100.92C601.417 95.8853 606.324 93.368 613.492 93.368C623.903 93.368 629.193 98.744 629.364 109.496V133.688C628.681 140.771 625.567 145.123 620.02 146.744C618.569 147 617.247 147.128 616.052 147.128ZM725.277 147.896L723.741 147.768C714.269 147.256 705.01 140.899 695.965 128.696L699.421 125.112C705.224 130.403 710.045 133.944 713.885 135.736C717.725 137.443 721.437 138.296 725.021 138.296C728.264 138.296 730.866 137.613 732.829 136.248C734.877 134.797 735.901 132.323 735.901 128.824V111.288C735.901 99.512 741.362 93.624 752.285 93.624C763.122 93.624 768.541 99.512 768.541 111.288V147H758.429V110.136C758.429 105.357 756.381 102.968 752.285 102.968C748.189 102.968 746.141 105.357 746.141 110.136V127.928C745.714 141.24 738.76 147.896 725.277 147.896ZM827.48 140.472C829.016 140.472 829.784 139.704 829.784 138.168C829.784 137.059 829.229 136.035 828.12 135.096C827.011 134.157 825.475 133.688 823.512 133.688C823.512 137.869 824.664 140.088 826.968 140.344L827.48 140.472ZM791.896 147.768C788.141 147.768 785.155 146.701 782.936 144.568C780.803 142.435 779.736 139.448 779.736 135.608C779.736 131.939 780.845 128.653 783.064 125.752C785.283 122.851 788.909 119.267 793.944 115C797.357 112.013 799.064 109.283 799.064 106.808C799.064 105.528 798.595 104.376 797.656 103.352C796.803 102.243 795.565 101.688 793.944 101.688C791.469 101.688 789.549 102.797 788.184 105.016C786.904 107.235 786.264 110.52 786.264 114.872V117.432L780.76 117.816C779.48 114.232 778.84 111.032 778.84 108.216C778.84 103.949 780.12 100.408 782.68 97.592C785.325 94.776 789.123 93.368 794.072 93.368C798.595 93.368 802.093 94.648 804.568 97.208C807.043 99.6827 808.28 102.584 808.28 105.912C808.28 108.813 807.469 111.501 805.848 113.976C804.227 116.451 801.795 119.011 798.552 121.656C792.152 126.776 788.952 131.256 788.952 135.096C788.952 137.741 790.275 139.064 792.92 139.064C795.139 139.064 797.699 137.869 800.6 135.48C806.317 130.616 810.755 127.885 813.912 127.288V117.048C814.083 101.603 821.379 93.7947 835.8 93.624H841.56C855.981 93.7947 863.277 101.603 863.448 117.048V147H853.208V116.28C852.952 106.893 848.941 102.072 841.176 101.816H836.184C828.077 102.072 823.853 106.083 823.512 113.848V126.392C827.523 126.477 830.808 127.715 833.368 130.104C836.013 132.408 837.336 135.267 837.336 138.68C837.251 141.325 836.44 143.459 834.904 145.08C833.368 146.701 831.064 147.512 827.992 147.512H826.712C823.299 147.256 820.525 145.933 818.392 143.544C816.6 141.411 815.363 138.68 814.68 135.352C813.059 136.035 811.693 136.888 810.584 137.912C806.403 141.837 802.989 144.483 800.344 145.848C797.699 147.128 794.883 147.768 791.896 147.768ZM903.027 262.072C896.798 257.037 893.683 247.352 893.683 233.016V109.496C893.683 105.059 891.934 102.84 888.435 102.84C885.022 102.84 883.315 105.059 883.315 109.496V162.744L873.715 163.128V110.008C873.715 99 878.75 93.496 888.819 93.496C898.803 93.496 903.795 99.0427 903.795 110.136V232.632C903.88 243.469 904.819 252.515 906.611 259.768L903.027 262.072ZM835.571 259.64C821.32 259.64 810.227 255.416 802.291 246.968C794.355 238.605 790.387 228.493 790.387 216.632C790.387 209.635 791.624 202.893 794.099 196.408C797.086 188.301 802.078 181.091 809.075 174.776C816.072 168.547 824.222 163.981 833.523 161.08C842.739 158.179 851.784 156.728 860.659 156.728C862.195 156.728 863.731 156.813 865.267 156.984L865.523 162.232C854.344 162.573 843.848 165.048 834.035 169.656C824.222 174.264 816.499 180.451 810.867 188.216C805.235 196.067 802.419 205.112 802.419 215.352C802.419 222.093 803.998 228.28 807.155 233.912C812.702 242.872 822.43 247.352 836.339 247.352C844.019 247.352 850.931 245.432 857.075 241.592C863.134 237.752 867.486 231.821 870.131 223.8C872.094 217.827 873.288 206.051 873.715 188.472V146.872H883.315V188.984C883.059 212.792 880.456 229.005 875.507 237.624C870.558 246.328 863.475 252.515 854.259 256.184C848.456 258.488 842.227 259.64 835.571 259.64ZM954.922 219.32L950.57 220.088C942.634 160.44 931.413 120.205 916.906 99.384L925.482 93.112C941.61 113.251 951.423 155.32 954.922 219.32ZM974.122 219.32L969.77 220.088C961.834 160.44 950.613 120.205 936.106 99.384L944.682 93.112C960.81 113.251 970.623 155.32 974.122 219.32Z" fill="#262626"/>
<path fill-rule="evenodd" clip-rule="evenodd" d="M128.215 21.1629L126.709 23.7667L121.464 20.743L122.97 18.1392L128.215 21.1629Z" fill="#262626"/>
<path fill-rule="evenodd" clip-rule="evenodd" d="M121.258 17.1524L115.736 26.7029L110.491 23.6792L116.013 14.1287L121.258 17.1524Z" fill="#262626"/>
<path fill-rule="evenodd" clip-rule="evenodd" d="M75.6959 111.996L36.9488 179.011L31.704 175.987L70.4511 108.973L75.6959 111.996Z" fill="#262626"/>
<path fill-rule="evenodd" clip-rule="evenodd" d="M118.631 37.739L79.8028 104.894L74.558 101.87L113.386 34.7153L118.631 37.739Z" fill="#262626"/>
<path fill-rule="evenodd" clip-rule="evenodd" d="M28.7888 193.123L27.283 195.727L22.0383 192.703L23.544 190.1L28.7888 193.123Z" fill="#262626"/>
<path fill-rule="evenodd" clip-rule="evenodd" d="M25.8857 182.102L20.3269 191.717L15.0822 188.693L20.641 179.078L25.8857 182.102Z" fill="#262626"/>
<path fill-rule="evenodd" clip-rule="evenodd" d="M38.9656 159.48L29.992 175L24.7473 171.976L33.7208 156.456L38.9656 159.48Z" fill="#262626"/>
<path fill-rule="evenodd" clip-rule="evenodd" d="M98.5284 56.4646L43.0962 152.335L37.8515 149.312L93.2837 53.4409L98.5284 56.4646Z" fill="#262626"/>
<path fill-rule="evenodd" clip-rule="evenodd" d="M111.598 33.8598L102.635 49.3629L97.3899 46.3392L106.353 30.8361L111.598 33.8598Z" fill="#262626"/>
<path fill-rule="evenodd" clip-rule="evenodd" d="M254.007 93.6833L252.501 96.2871L247.256 93.2634L248.762 90.6596L254.007 93.6833Z" fill="#FF4848"/>
<path fill-rule="evenodd" clip-rule="evenodd" d="M169.16 240.428L158.687 258.541L153.442 255.517L163.915 237.405L169.16 240.428Z" fill="#FF4848"/>
<path fill-rule="evenodd" clip-rule="evenodd" d="M154.581 265.644L153.075 268.247L147.83 265.224L149.336 262.62L154.581 265.644Z" fill="#FF4848"/>
<path fill-rule="evenodd" clip-rule="evenodd" d="M228.077 138.529L178.906 223.571L173.661 220.547L222.833 135.505L228.077 138.529Z" fill="#FF4848"/>
<path fill-rule="evenodd" clip-rule="evenodd" d="M248.395 103.389L237.84 121.644L232.595 118.621L243.15 100.366L248.395 103.389Z" fill="#FF4848"/>
<path fill-rule="evenodd" clip-rule="evenodd" d="M150.922 34.2538L149.417 36.8577L144.172 33.834L145.678 31.2302L150.922 34.2538Z" fill="#FF4848"/>
<path fill-rule="evenodd" clip-rule="evenodd" d="M66.0753 180.999L55.6024 199.112L50.3577 196.088L60.8306 177.975L66.0753 180.999Z" fill="#FF4848"/>
<path fill-rule="evenodd" clip-rule="evenodd" d="M51.4962 206.214L49.9904 208.818L44.7457 205.794L46.2515 203.19L51.4962 206.214Z" fill="#FF4848"/>
<path fill-rule="evenodd" clip-rule="evenodd" d="M125.441 78.3259L75.5658 164.586L70.321 161.562L120.196 75.3022L125.441 78.3259Z" fill="#FF4848"/>
<path fill-rule="evenodd" clip-rule="evenodd" d="M145.31 43.9601L134.952 61.874L129.708 58.8503L140.066 40.9364L145.31 43.9601Z" fill="#FF4848"/>
<path fill-rule="evenodd" clip-rule="evenodd" d="M193.027 80.7316L156.82 143.352L151.576 140.328L187.782 77.7079L193.027 80.7316Z" fill="#FBFBFB"/>
<path fill-rule="evenodd" clip-rule="evenodd" d="M156.729 143.509L152.328 144.716L151.484 140.485L151.741 140.042L156.986 143.066L156.729 143.509Z" fill="#FBFBFB"/>
<path fill-rule="evenodd" clip-rule="evenodd" d="M147.625 159.256L146.471 154.846L142.38 156.232L142.123 156.675L147.368 159.699L147.625 159.256Z" fill="#FBFBFB"/>
<path fill-rule="evenodd" clip-rule="evenodd" d="M107.283 229.028L101.724 238.643L96.4792 235.619L102.038 226.005L107.283 229.028Z" fill="#FBFBFB"/>
<path fill-rule="evenodd" clip-rule="evenodd" d="M147.625 159.255L111.389 221.926L106.144 218.902L142.38 156.232L147.625 159.255Z" fill="#FBFBFB"/>
<path fill-rule="evenodd" clip-rule="evenodd" d="M148.781 159.028L147.132 153.167L154.681 157.519L156.729 165.581L148.782 159.028H148.781Z" fill="#262626"/>
<path fill-rule="evenodd" clip-rule="evenodd" d="M150.076 140.578L151.726 146.44L144.177 142.087L142.128 134.025L150.076 140.578H150.076Z" fill="#262626"/>
<path fill-rule="evenodd" clip-rule="evenodd" d="M202.655 64.0787L197.133 73.6292L191.888 70.6055L197.41 61.0551L202.655 64.0787Z" fill="#FBFBFB"/>
<path fill-rule="evenodd" clip-rule="evenodd" d="M276.727 106.781L275.222 109.385L269.977 106.362L271.483 103.758L276.727 106.781Z" fill="#262626"/>
<path fill-rule="evenodd" clip-rule="evenodd" d="M177.456 278.475L175.795 281.346L170.551 278.323L172.211 275.451L177.456 278.475Z" fill="#262626"/>
<path fill-rule="evenodd" clip-rule="evenodd" d="M224.208 197.615L185.461 264.629L180.216 261.606L218.964 194.592L224.208 197.615Z" fill="#262626"/>
<path fill-rule="evenodd" clip-rule="evenodd" d="M267.099 123.434L228.337 190.474L223.092 187.45L261.854 120.411L267.099 123.434Z" fill="#262626"/>
<path fill-rule="evenodd" clip-rule="evenodd" d="M283.742 110.826L278.214 120.387L272.97 117.363L278.498 107.802L283.742 110.826Z" fill="#262626"/>
<path fill-rule="evenodd" clip-rule="evenodd" d="M274.086 127.527L265.119 143.036L259.874 140.012L268.841 124.504L274.086 127.527Z" fill="#262626"/>
<path fill-rule="evenodd" clip-rule="evenodd" d="M188.375 275.767L182.81 285.39L177.566 282.367L183.13 272.743L188.375 275.767Z" fill="#262626"/>
<path fill-rule="evenodd" clip-rule="evenodd" d="M201.45 253.153L192.4 268.805L187.155 265.781L196.205 250.13L201.45 253.153Z" fill="#262626"/>
<path fill-rule="evenodd" clip-rule="evenodd" d="M261.012 150.139L205.578 246.014L200.333 242.99L255.767 147.115L261.012 150.139Z" fill="#262626"/>
<path fill-rule="evenodd" clip-rule="evenodd" d="M272.514 116.051L198.483 73.3715L201.511 68.1345L275.542 110.814L272.514 116.051Z" fill="#262626"/>
<path fill-rule="evenodd" clip-rule="evenodd" d="M282.214 121.644L279.618 120.146L282.646 114.909L285.242 116.406L282.214 121.644Z" fill="#262626"/>
<path fill-rule="evenodd" clip-rule="evenodd" d="M191.333 69.2491L117.12 26.4646L120.148 21.2275L194.361 64.012L191.333 69.2491Z" fill="#262626"/>
<path fill-rule="evenodd" clip-rule="evenodd" d="M110.007 22.3644L107.35 20.8328L110.378 15.5957L113.035 17.1273L110.007 22.3644Z" fill="#262626"/>
<path fill-rule="evenodd" clip-rule="evenodd" d="M278.494 128.76L245.827 109.928L248.855 104.691L281.522 123.523L278.494 128.76Z" fill="#262626"/>
<path fill-rule="evenodd" clip-rule="evenodd" d="M238.677 105.805L142.805 50.5342L145.833 45.2971L241.705 100.568L238.677 105.805Z" fill="#262626"/>
<path fill-rule="evenodd" clip-rule="evenodd" d="M135.655 46.4124L103.084 27.6352L106.112 22.3981L138.683 41.1753L135.655 46.4124Z" fill="#262626"/>
<path fill-rule="evenodd" clip-rule="evenodd" d="M225.562 197.152L202.961 184.123L205.989 178.885L228.59 191.915L225.562 197.152Z" fill="#FBFBFB"/>
<path fill-rule="evenodd" clip-rule="evenodd" d="M235.603 202.941L232.587 201.202L235.615 195.965L238.631 197.704L235.603 202.941Z" fill="#FBFBFB"/>
<path fill-rule="evenodd" clip-rule="evenodd" d="M195.849 180.022L99.876 124.693L102.904 119.456L198.877 174.785L195.849 180.022Z" fill="#FBFBFB"/>
<path fill-rule="evenodd" clip-rule="evenodd" d="M92.7252 120.571L70.2125 107.592L73.2406 102.355L95.7533 115.334L92.7252 120.571Z" fill="#FBFBFB"/>
<path fill-rule="evenodd" clip-rule="evenodd" d="M63.0998 103.491L60.1924 101.815L63.2205 96.5778L66.1279 98.2536L63.0998 103.491Z" fill="#FBFBFB"/>
<path fill-rule="evenodd" clip-rule="evenodd" d="M40.4484 159.07L30.4283 153.293L33.4564 148.056L43.4765 153.833L40.4484 159.07Z" fill="#FF4848"/>
<path fill-rule="evenodd" clip-rule="evenodd" d="M205.839 254.419L195.917 248.699L198.945 243.462L208.867 249.182L205.839 254.419Z" fill="#FF4848"/>
<path fill-rule="evenodd" clip-rule="evenodd" d="M188.864 244.632L121.86 206.004L124.888 200.767L191.892 239.395L188.864 244.632Z" fill="#FF4848"/>
<path fill-rule="evenodd" clip-rule="evenodd" d="M114.857 201.967L47.4052 163.08L50.4332 157.843L117.885 196.73L114.857 201.967Z" fill="#FF4848"/>
<path fill-rule="evenodd" clip-rule="evenodd" d="M99.8458 55.9809L90.2778 50.4646L93.3059 45.2275L102.874 50.7438L99.8458 55.9809Z" fill="#FF4848"/>
<path fill-rule="evenodd" clip-rule="evenodd" d="M265.097 151.25L255.47 145.7L258.498 140.463L268.125 146.012L265.097 151.25Z" fill="#FF4848"/>
<path fill-rule="evenodd" clip-rule="evenodd" d="M248.358 141.599L181.398 102.997L184.426 97.7598L251.386 136.362L248.358 141.599Z" fill="#FF4848"/>
<path fill-rule="evenodd" clip-rule="evenodd" d="M174.262 98.8823L106.959 60.0811L109.987 54.8441L177.29 93.6453L174.262 98.8823Z" fill="#FF4848"/>
<path fill-rule="evenodd" clip-rule="evenodd" d="M16.1927 184.618L13.5815 183.112L16.6096 177.875L19.2208 179.381L16.1927 184.618Z" fill="#262626"/>
<path fill-rule="evenodd" clip-rule="evenodd" d="M97.543 231.517L23.3054 188.718L26.3335 183.481L100.571 226.28L97.543 231.517Z" fill="#262626"/>
<path fill-rule="evenodd" clip-rule="evenodd" d="M188.401 283.898L185.79 282.392L188.818 277.155L191.429 278.661L188.401 283.898Z" fill="#262626"/>
<path fill-rule="evenodd" clip-rule="evenodd" d="M178.701 278.305L104.694 235.64L107.722 230.403L181.729 273.068L178.701 278.305Z" fill="#262626"/>
<path fill-rule="evenodd" clip-rule="evenodd" d="M153.038 254.162L57.0227 198.809L60.0508 193.572L156.066 248.925L153.038 254.162Z" fill="#262626"/>
<path fill-rule="evenodd" clip-rule="evenodd" d="M192.454 276.887L160.108 258.239L163.136 253.002L195.482 271.65L192.454 276.887Z" fill="#262626"/>
<path fill-rule="evenodd" clip-rule="evenodd" d="M49.91 194.709L17.6345 176.101L20.6626 170.864L52.9381 189.472L49.91 194.709Z" fill="#262626"/>
<path fill-rule="evenodd" clip-rule="evenodd" d="M122.481 61.0787L120.364 53.1912L126.214 51.6259L128.331 59.5134L122.481 61.0787Z" fill="#262626"/>
<path fill-rule="evenodd" clip-rule="evenodd" d="M172.611 247.893L170.563 240.263L176.413 238.697L178.461 246.327L172.611 247.893Z" fill="#262626"/>
<path fill-rule="evenodd" clip-rule="evenodd" d="M165.974 223.16L148.77 159.048L154.62 157.483L171.824 221.595L165.974 223.16Z" fill="#262626"/>
<path fill-rule="evenodd" clip-rule="evenodd" d="M144.226 142.116L126.961 77.7725L132.811 76.2072L150.076 140.551L144.226 142.116Z" fill="#262626"/>
<path fill-rule="evenodd" clip-rule="evenodd" d="M247.688 126.595L240.115 128.621L238.547 122.78L246.121 120.754L247.688 126.595Z" fill="#262626"/>
<path fill-rule="evenodd" clip-rule="evenodd" d="M222.136 133.432L158.73 150.397L157.163 144.556L220.569 127.59L222.136 133.432Z" fill="#262626"/>
<path fill-rule="evenodd" clip-rule="evenodd" d="M141.661 154.964L77.3734 172.164L75.8058 166.323L140.094 149.122L141.661 154.964Z" fill="#262626"/>
<path fill-rule="evenodd" clip-rule="evenodd" d="M60.3441 176.721L52.703 178.766L51.1354 172.924L58.7765 170.879L60.3441 176.721Z" fill="#262626"/>
<path fill-rule="evenodd" clip-rule="evenodd" d="M222.748 135.654L223.688 134.028L230.2 132.375L231.277 132.996L228.078 138.53L222.748 135.654Z" fill="#FF4848"/>
<path fill-rule="evenodd" clip-rule="evenodd" d="M124.89 79.2775L125.83 77.6519L124.007 71.1941L122.93 70.5732L119.731 76.1067L124.89 79.2775Z" fill="#FF4848"/>
<path fill-rule="evenodd" clip-rule="evenodd" d="M76.0301 163.782L75.09 165.408L68.5781 167.061L67.5007 166.44L70.6998 160.906L76.0301 163.782Z" fill="#FF4848"/>
<path fill-rule="evenodd" clip-rule="evenodd" d="M173.904 220.129L172.964 221.755L174.787 228.212L175.864 228.833L179.064 223.3L173.904 220.128V220.129Z" fill="#FF4848"/>
<path fill-rule="evenodd" clip-rule="evenodd" d="M221.467 127.34L228.868 131.607L216.223 135.045L217.694 128.404L221.467 127.34Z" fill="#262626"/>
<path fill-rule="evenodd" clip-rule="evenodd" d="M132.953 76.3507L125.552 72.084L128.893 84.7378L133.916 80.1452L132.953 76.35V76.3507Z" fill="#262626"/>
<path fill-rule="evenodd" clip-rule="evenodd" d="M77.5092 172.242L70.1083 167.976L82.7532 164.538L81.282 171.178L77.5092 172.242Z" fill="#262626"/>
<path fill-rule="evenodd" clip-rule="evenodd" d="M166.042 223.199L173.443 227.466L170.204 215.659L165.079 219.404L166.042 223.199Z" fill="#262626"/>
<path fill-rule="evenodd" clip-rule="evenodd" d="M242.183 121.831L232.678 124.334L240.079 128.6L247.547 126.5L242.183 121.831Z" fill="#262626"/>
<path fill-rule="evenodd" clip-rule="evenodd" d="M127.371 55.9156L129.953 65.3864L122.552 61.1197L120.64 53.6118L127.37 55.9156H127.371Z" fill="#262626"/>
<path fill-rule="evenodd" clip-rule="evenodd" d="M56.7597 177.699L66.2644 175.196L58.8634 170.93L51.3956 173.03L56.7597 177.699Z" fill="#262626"/>
<path fill-rule="evenodd" clip-rule="evenodd" d="M171.591 243.922L169.009 234.451L176.41 238.718L178.322 246.226L171.591 243.922Z" fill="#262626"/>
<path fill-rule="evenodd" clip-rule="evenodd" d="M238.247 120.942L237.734 121.829L231.346 123.566L230.139 122.87L233.088 117.77L238.248 120.942H238.247Z" fill="#FF4848"/>
<path fill-rule="evenodd" clip-rule="evenodd" d="M129.911 58.4843L129.399 59.3713L131.086 65.7646L132.292 66.4608L135.241 61.3608L129.911 58.4843Z" fill="#FF4848"/>
<path fill-rule="evenodd" clip-rule="evenodd" d="M60.5309 178.494L61.0434 177.607L67.4316 175.87L68.6384 176.566L65.6894 181.666L60.5309 178.494Z" fill="#FF4848"/>
<path fill-rule="evenodd" clip-rule="evenodd" d="M168.851 240.963L169.363 240.076L167.676 233.683L166.47 232.987L163.521 238.087L168.851 240.962V240.963Z" fill="#FF4848"/>
<path fill-rule="evenodd" clip-rule="evenodd" d="M140.175 149.156L145.947 152.484L146.33 153.871L141.279 155.097L138.016 149.669L140.175 149.156Z" fill="#262626"/>
<path fill-rule="evenodd" clip-rule="evenodd" d="M158.683 150.45L152.91 147.122L152.528 145.735L164.817 142.573L163.495 149.102L158.683 150.45Z" fill="#262626"/>
</svg>
