<?xml version="1.0" encoding="UTF-8" standalone="no"?><!DOCTYPE svg PUBLIC "-//W3C//DTD SVG 1.1//EN" "http://www.w3.org/Graphics/SVG/1.1/DTD/svg11.dtd"><svg width="100%" height="100%" viewBox="0 0 416 418" version="1.1" xmlns="http://www.w3.org/2000/svg" xmlns:xlink="http://www.w3.org/1999/xlink" xml:space="preserve" xmlns:serif="http://www.serif.com/" style="fill-rule:evenodd;clip-rule:evenodd;stroke-linejoin:round;stroke-miterlimit:2;"><rect id="Silhouette" x="0" y="0" width="415.756" height="417.33" style="fill:none;"/><g id="Klatkat-2" serif:id="Klatkat 2"><g id="Vertical"><path d="M178.112,27.821l-2.114,3.662l-7.365,-4.252l2.114,-3.662l7.365,4.252Z"/><path d="M168.343,22.181l-7.754,13.431l-7.365,-4.252l7.754,-13.431l7.365,4.252Z"/><path d="M104.363,155.559l-54.411,94.242l-7.365,-4.252l54.411,-94.242l7.365,4.252Z"/><path d="M164.653,51.132l-54.524,94.439l-7.365,-4.252l54.524,-94.439l7.365,4.252Z"/><path d="M38.494,269.647l-2.114,3.662l-7.365,-4.252l2.114,-3.662l7.365,4.252Z"/><path d="M34.417,254.148l-7.806,13.521l-7.365,-4.252l7.806,-13.521l7.365,4.252Z"/><path d="M52.785,222.335l-12.601,21.825l-7.365,-4.252l12.601,-21.825l7.365,4.252Z"/><path d="M136.425,77.466l-77.84,134.822l-7.365,-4.252l77.84,-134.822l7.365,4.252Z"/><path d="M154.778,45.676l-12.587,21.802l-7.365,-4.252l12.587,-21.802l7.365,4.252Z"/><path d="M354.754,129.806l-2.114,3.662l-7.365,-4.252l2.114,-3.662l7.365,4.252Z"/><path d="M235.609,336.172l-14.706,25.472l-7.365,-4.252l14.706,-25.472l7.365,4.252Z"/><path d="M215.136,371.631l-2.114,3.662l-7.365,-4.252l2.114,-3.662l7.365,4.252Z"/><path d="M318.343,192.872l-69.048,119.594l-7.365,-4.252l69.048,-119.594l7.365,4.252Z"/><path d="M346.873,143.456l-14.822,25.672l-7.365,-4.252l14.822,-25.672l7.365,4.252Z"/><path d="M209.998,46.231l-2.114,3.662l-7.365,-4.252l2.114,-3.662l7.365,4.252Z"/><path d="M90.853,252.597l-14.706,25.472l-7.365,-4.252l14.706,-25.472l7.365,4.252Z"/><path d="M70.381,288.056l-2.114,3.662l-7.365,-4.252l2.114,-3.662l7.365,4.252Z"/><path d="M174.216,108.209l-70.036,121.306l-7.365,-4.252l70.036,-121.306l7.365,4.252Z"/><path d="M202.118,59.881l-14.545,25.192l-7.365,-4.252l14.545,-25.192l7.365,4.252Z"/><path d="M269.123,111.592l-50.843,88.062l-7.365,-4.252l50.843,-88.062l7.365,4.252Z"/><path d="M218.153,199.875l-6.18,1.697l-1.185,-5.949l0.36,-0.624l7.365,4.252l-0.36,0.624Z"/><path d="M205.368,222.019l-1.62,-6.201l-5.745,1.949l-0.36,0.624l7.365,4.252l0.36,-0.624Z"/><path d="M148.718,320.139l-7.806,13.521l-7.365,-4.252l7.806,-13.521l7.365,4.252Z"/><path d="M205.368,222.019l-50.883,88.132l-7.365,-4.252l50.883,-88.132l7.365,4.252Z"/><path d="M206.992,221.699l-2.317,-8.243l10.6,6.12l2.877,11.338l-11.16,-9.215Z"/><path d="M208.811,195.753l2.317,8.243l-10.6,-6.12l-2.877,-11.338l11.16,9.215Z"/><path d="M282.644,88.173l-7.754,13.431l-7.365,-4.252l7.754,-13.431l7.365,4.252Z"/><path d="M386.659,148.226l-2.114,3.662l-7.365,-4.252l2.114,-3.662l7.365,4.252Z"/><path d="M247.258,389.675l-2.331,4.038l-7.365,-4.252l2.331,-4.038l7.365,4.252Z"/><path d="M312.909,275.963l-54.41,94.241l-7.365,-4.252l54.41,-94.241l7.365,4.252Z"/><path d="M373.138,171.645l-54.431,94.278l-7.365,-4.252l54.431,-94.278l7.365,4.252Z"/><path d="M396.509,153.913l-7.763,13.445l-7.365,-4.252l7.763,-13.445l7.365,4.252Z"/><path d="M382.949,177.4l-12.592,21.81l-7.365,-4.252l12.592,-21.81l7.365,4.252Z"/><path d="M262.591,385.867l-7.814,13.534l-7.365,-4.252l7.814,-13.534l7.365,4.252Z"/><path d="M280.951,354.066l-12.708,22.011l-7.365,-4.252l12.708,-22.011l7.365,4.252Z"/><path d="M364.591,209.198l-77.843,134.828l-7.365,-4.252l77.843,-134.828l7.365,4.252Z"/></g><g id="Horizontal"><path d="M380.743,161.261l-103.958,-60.02l4.252,-7.365l103.958,60.02l-4.252,7.365Z"/><path d="M394.364,169.126l-3.646,-2.105l4.252,-7.365l3.646,2.105l-4.252,7.365Z"/><path d="M266.744,95.444l-104.212,-60.167l4.252,-7.365l104.212,60.167l-4.252,7.365Z"/><path d="M152.543,29.511l-3.73,-2.154l4.252,-7.365l3.73,2.154l-4.252,7.365Z"/><path d="M389.14,179.134l-45.872,-26.484l4.252,-7.365l45.872,26.484l-4.252,7.365Z"/><path d="M333.226,146.853l-134.627,-77.727l4.252,-7.365l134.627,77.727l-4.252,7.365Z"/><path d="M188.559,63.329l-45.738,-26.407l4.252,-7.365l45.738,26.407l-4.252,7.365Z"/><path d="M314.81,275.312l-31.736,-18.323l4.252,-7.365l31.736,18.323l-4.252,7.365Z"/><path d="M328.911,283.453l-4.236,-2.446l4.252,-7.365l4.236,2.446l-4.252,7.365Z"/><path d="M273.086,251.223l-134.768,-77.808l4.252,-7.365l134.768,77.808l-4.252,7.365Z"/><path d="M128.276,167.617l-31.613,-18.252l4.252,-7.365l31.613,18.252l-4.252,7.365Z"/><path d="M86.675,143.598l-4.083,-2.357l4.252,-7.365l4.083,2.357l-4.252,7.365Z"/><path d="M54.867,221.757l-14.07,-8.124l4.252,-7.365l14.07,8.124l-4.252,7.365Z"/><path d="M287.115,355.846l-13.933,-8.044l4.252,-7.365l13.933,8.044l-4.252,7.365Z"/><path d="M263.277,342.083l-94.09,-54.323l4.252,-7.365l94.09,54.323l-4.252,7.365Z"/><path d="M159.354,282.083l-94.719,-54.686l4.252,-7.365l94.719,54.686l-4.252,7.365Z"/><path d="M138.274,76.785l-13.436,-7.757l4.252,-7.365l13.436,7.757l-4.252,7.365Z"/><path d="M370.326,210.76l-13.517,-7.804l4.252,-7.365l13.517,7.804l-4.252,7.365Z"/><path d="M346.821,197.19l-94.027,-54.286l4.252,-7.365l94.027,54.286l-4.252,7.365Z"/><path d="M242.772,137.117l-94.51,-54.565l4.252,-7.365l94.51,54.565l-4.252,7.365Z"/><path d="M20.806,257.686l-3.667,-2.117l4.252,-7.365l3.667,2.117l-4.252,7.365Z"/><path d="M135.041,323.639l-104.247,-60.187l4.252,-7.365l104.247,60.187l-4.252,7.365Z"/><path d="M262.627,397.301l-3.667,-2.117l4.252,-7.365l3.667,2.117l-4.252,7.365Z"/><path d="M249.006,389.437l-103.923,-60l4.252,-7.365l103.923,60l-4.252,7.365Z"/><path d="M212.969,355.486l-134.828,-77.843l4.252,-7.365l134.828,77.843l-4.252,7.365Z"/><path d="M268.319,387.442l-45.422,-26.224l4.252,-7.365l45.422,26.224l-4.252,7.365Z"/><path d="M68.154,271.877l-45.322,-26.167l4.252,-7.365l45.322,26.167l-4.252,7.365Z"/></g><g id="Cross"><path d="M170.06,83.954l-2.972,-11.092l8.214,-2.201l2.972,11.092l-8.214,2.201Z"/><path d="M240.454,346.668l-2.875,-10.73l8.214,-2.201l2.875,10.73l-8.214,2.201Z"/><path d="M231.134,311.886l-24.158,-90.159l8.214,-2.201l24.158,90.159l-8.214,2.201Z"/><path d="M200.596,197.916l-24.246,-90.486l8.214,-2.201l24.246,90.486l-8.214,2.201Z"/><path d="M345.881,176.089l-10.635,2.85l-2.201,-8.214l10.635,-2.85l2.201,8.214Z"/><path d="M309.999,185.703l-89.037,23.857l-2.201,-8.214l89.037,-23.857l2.201,8.214Z"/><path d="M196.994,215.983l-90.276,24.189l-2.201,-8.214l90.276,-24.189l2.201,8.214Z"/><path d="M82.805,246.58l-10.73,2.875l-2.201,-8.214l10.73,-2.875l2.201,8.214Z"/></g><g id="Corner"><path d="M310.858,188.828l1.32,-2.286l9.145,-2.324l1.513,0.873l-4.493,7.782l-7.485,-4.044Z"/><path d="M173.443,109.547l1.32,-2.286l-2.559,-9.082l-1.513,-0.873l-4.493,7.782l7.245,4.46Z"/><path d="M104.832,228.384l-1.32,2.286l-9.145,2.324l-1.513,-0.873l4.493,-7.782l7.485,4.044Z"/><path d="M242.271,307.625l-1.32,2.286l2.559,9.082l1.513,0.873l4.493,-7.782l-7.245,-4.46Z"/><path d="M309.06,177.137l10.392,6l-17.756,4.835l2.066,-9.338l5.298,-1.497Z"/><path d="M184.766,105.431l-10.392,-6l4.691,17.795l7.054,-6.458l-1.353,-5.337Z"/><path d="M106.909,240.283l-10.392,-6l17.756,-4.835l-2.066,9.338l-5.298,1.497Z"/><path d="M231.23,311.942l10.392,6l-4.547,-16.604l-7.198,5.267l1.353,5.337Z"/><path d="M338.15,169.389l-13.347,3.52l10.392,6l10.486,-2.954l-7.531,-6.565Z"/><path d="M176.927,76.693l3.625,13.319l-10.392,-6l-2.684,-10.559l9.451,3.24Z"/><path d="M77.771,247.956l13.347,-3.52l-10.392,-6l-10.486,2.954l7.531,6.565Z"/><path d="M239.022,341.085l-3.625,-13.319l10.392,6l2.684,10.559l-9.451,-3.24Z"/><path d="M332.623,168.138l-0.72,1.247l-8.971,2.444l-1.695,-0.979l4.141,-7.172l7.245,4.46Z"/><path d="M180.493,80.306l-0.72,1.247l2.369,8.991l1.695,0.979l4.141,-7.172l-7.485,-4.044Z"/><path d="M83.068,249.074l0.72,-1.247l8.971,-2.444l1.695,0.979l-4.141,7.172l-7.245,-4.46Z"/><path d="M235.175,336.923l0.72,-1.247l-2.369,-8.991l-1.695,-0.979l-4.141,7.172l7.485,4.044Z"/><path d="M194.907,207.816l8.106,4.68l0.537,1.95l-7.093,1.725l-4.581,-7.633l3.031,-0.721Z"/><path d="M220.896,209.636l-8.106,-4.68l-0.537,-1.95l17.256,-4.448l-1.856,9.182l-6.757,1.896Z"/></g></g></svg>